<?xml version="1.0" encoding="UTF-8" standalone="no"?><!DOCTYPE svg PUBLIC "-//W3C//DTD SVG 1.1//EN" "http://www.w3.org/Graphics/SVG/1.1/DTD/svg11.dtd"><svg width="100%" height="100%" viewBox="0 0 12680 3217" version="1.1" xmlns="http://www.w3.org/2000/svg" xmlns:xlink="http://www.w3.org/1999/xlink" xml:space="preserve" xmlns:serif="http://www.serif.com/" style="fill-rule:evenodd;clip-rule:evenodd;stroke-miterlimit:10;"><rect id="Page-1" serif:id="Page 1" x="0" y="0" width="12679.345" height="3216.873" style="fill:none;"/><g id="Layer-1" serif:id="Layer 1"><path d="M1677.208,375.794l-182.329,0.308c-16.108,0.029 -29.188,-13.008 -29.217,-29.117l-0.308,-182.329c-0.029,-16.108 13.008,-29.188 29.117,-29.217l182.329,-0.308c16.108,-0.029 29.188,13.008 29.217,29.117l0.308,182.329c0.029,16.108 -13.008,29.188 -29.117,29.217Z" style="fill:#f5928d;fill-rule:nonzero;stroke:#f5928d;stroke-width:4.17px;"/><path d="M1704.521,538.628l-103.296,103.646c-8.121,8.15 -21.312,8.171 -29.463,0.05l-103.646,-103.296c-8.15,-8.121 -8.171,-21.312 -0.05,-29.462l103.296,-103.646c8.121,-8.15 21.312,-8.171 29.462,-0.05l103.646,103.296c8.15,8.121 8.171,21.312 0.05,29.462Z" style="fill:#f5928d;fill-rule:nonzero;stroke:#f5928d;stroke-width:4.17px;"/><path d="M1676.9,772.976l-82.679,82.958c-4.058,4.075 -10.654,4.087 -14.729,0.025l-82.958,-82.679c-4.075,-4.058 -4.087,-10.654 -0.025,-14.729l82.675,-82.958c4.062,-4.075 10.658,-4.087 14.733,-0.025l82.958,82.675c4.075,4.062 4.088,10.658 0.025,14.733Z" style="fill:#f5928d;fill-rule:nonzero;stroke:#f5928d;stroke-width:4.17px;"/><path d="M1658.194,956.633l-67.371,67.6c-2.029,2.033 -5.325,2.042 -7.362,0.012l-67.6,-67.371c-2.037,-2.029 -2.042,-5.329 -0.012,-7.367l67.371,-67.596c2.029,-2.038 5.325,-2.046 7.362,-0.013l67.6,67.367c2.038,2.033 2.042,5.329 0.013,7.367Z" style="fill:#f5928d;fill-rule:nonzero;stroke:#f5928d;stroke-width:4.17px;"/><path d="M1354.203,394.798l-176.037,47.488c-15.554,4.196 -31.562,-5.008 -35.758,-20.562l-47.487,-176.038c-4.196,-15.55 5.012,-31.558 20.562,-35.754l176.037,-47.492c15.554,-4.196 31.562,5.013 35.758,20.563l47.487,176.037c4.196,15.554 -5.008,31.563 -20.562,35.758Z" style="fill:#f5928d;fill-rule:nonzero;stroke:#f5928d;stroke-width:4.17px;"/><path d="M1422.73,545.014l-72.95,126.85c-5.737,9.975 -18.471,13.408 -28.446,7.675l-126.85,-72.95c-9.975,-5.738 -13.408,-18.475 -7.675,-28.446l72.95,-126.85c5.737,-9.975 18.475,-13.413 28.446,-7.675l126.85,72.95c9.975,5.737 13.412,18.471 7.675,28.446Z" style="fill:#f5928d;fill-rule:nonzero;stroke:#f5928d;stroke-width:4.17px;"/><path d="M1456.704,778.526l-58.388,101.529c-2.871,4.987 -9.237,6.704 -14.225,3.837l-101.529,-58.388c-4.987,-2.871 -6.704,-9.237 -3.838,-14.225l58.388,-101.529c2.871,-4.987 9.237,-6.704 14.225,-3.837l101.529,58.388c4.988,2.871 6.704,9.237 3.838,14.225Z" style="fill:#f5928d;fill-rule:nonzero;stroke:#f5928d;stroke-width:4.17px;"/><path d="M1486.169,960.766l-47.579,82.729c-1.433,2.496 -4.617,3.354 -7.108,1.921l-82.733,-47.579c-2.492,-1.433 -3.35,-4.617 -1.917,-7.113l47.575,-82.729c1.438,-2.492 4.621,-3.354 7.112,-1.917l82.733,47.575c2.492,1.433 3.35,4.621 1.917,7.112Z" style="fill:#f5928d;fill-rule:nonzero;stroke:#f5928d;stroke-width:4.17px;"/><path d="M1047.625,496.619l-157.746,91.433c-13.938,8.079 -31.783,3.329 -39.863,-10.608l-91.433,-157.75c-8.079,-13.933 -3.329,-31.779 10.608,-39.858l157.75,-91.433c13.933,-8.079 31.779,-3.329 39.858,10.608l91.433,157.746c8.079,13.938 3.329,31.783 -10.608,39.863Z" style="fill:#f5928d;fill-rule:nonzero;stroke:#f5928d;stroke-width:4.17px;"/><path d="M1152.696,623.98l-37.633,141.408c-2.958,11.121 -14.371,17.733 -25.492,14.775l-141.408,-37.633c-11.117,-2.958 -17.733,-14.371 -14.775,-25.492l37.633,-141.408c2.963,-11.117 14.375,-17.733 25.492,-14.775l141.408,37.633c11.121,2.958 17.733,14.371 14.775,25.492Z" style="fill:#f5928d;fill-rule:nonzero;stroke:#f5928d;stroke-width:4.17px;"/><path d="M1245.949,840.742l-30.121,113.183c-1.479,5.558 -7.188,8.867 -12.746,7.388l-113.183,-30.121c-5.558,-1.479 -8.867,-7.188 -7.388,-12.746l30.121,-113.183c1.479,-5.558 7.188,-8.867 12.746,-7.387l113.183,30.121c5.558,1.479 8.867,7.188 7.388,12.746Z" style="fill:#f5928d;fill-rule:nonzero;stroke:#f5928d;stroke-width:4.17px;"/><path d="M1321.578,1009.146l-24.546,92.225c-0.737,2.779 -3.592,4.433 -6.371,3.696l-92.225,-24.546c-2.779,-0.737 -4.433,-3.592 -3.696,-6.371l24.546,-92.229c0.738,-2.779 3.592,-4.433 6.371,-3.692l92.229,24.546c2.779,0.738 4.433,3.592 3.692,6.371Z" style="fill:#f5928d;fill-rule:nonzero;stroke:#f5928d;stroke-width:4.17px;"/><path d="M777.846,674.318l-128.708,129.146c-11.371,11.408 -29.837,11.442 -41.246,0.071l-129.146,-128.708c-11.412,-11.371 -11.442,-29.838 -0.071,-41.25l128.708,-129.146c11.371,-11.408 29.837,-11.438 41.246,-0.067l129.146,128.708c11.413,11.371 11.442,29.837 0.071,41.246Z" style="fill:#f5928d;fill-rule:nonzero;stroke:#f5928d;stroke-width:4.17px;"/><path d="M912.3,770.145l0.25,146.329c0.017,11.508 -9.296,20.85 -20.8,20.871l-146.329,0.246c-11.508,0.021 -20.85,-9.292 -20.871,-20.796l-0.246,-146.329c-0.021,-11.508 9.292,-20.85 20.796,-20.871l146.333,-0.25c11.504,-0.017 20.846,9.296 20.867,20.8Z" style="fill:#f5928d;fill-rule:nonzero;stroke:#f5928d;stroke-width:4.17px;"/><path d="M1058.478,955.386l0.2,117.121c0.008,5.754 -4.646,10.425 -10.4,10.438l-117.121,0.196c-5.754,0.013 -10.425,-4.646 -10.438,-10.4l-0.196,-117.121c-0.013,-5.754 4.646,-10.425 10.396,-10.433l117.125,-0.2c5.75,-0.008 10.425,4.646 10.433,10.4Z" style="fill:#f5928d;fill-rule:nonzero;stroke:#f5928d;stroke-width:4.17px;"/><path d="M1175.116,1098.477l0.162,95.438c0.004,2.875 -2.325,5.213 -5.2,5.217l-95.438,0.163c-2.875,0.004 -5.212,-2.325 -5.217,-5.2l-0.163,-95.438c-0.004,-2.875 2.325,-5.213 5.2,-5.217l95.438,-0.162c2.875,-0.004 5.213,2.325 5.217,5.2Z" style="fill:#f5928d;fill-rule:nonzero;stroke:#f5928d;stroke-width:4.17px;"/><path d="M563.252,915.787l-90.896,158.058c-8.033,13.963 -25.862,18.771 -39.825,10.742l-158.058,-90.896c-13.962,-8.033 -18.775,-25.863 -10.742,-39.825l90.896,-158.058c8.029,-13.962 25.862,-18.771 39.825,-10.742l158.058,90.896c13.962,8.033 18.771,25.863 10.742,39.825Z" style="fill:#f5928d;fill-rule:nonzero;stroke:#f5928d;stroke-width:4.17px;"/><path d="M717.927,973.549l38.112,141.279c2.996,11.108 -3.579,22.546 -14.688,25.542l-141.279,38.112c-11.108,2.996 -22.546,-3.579 -25.542,-14.688l-38.112,-141.279c-2.996,-11.108 3.579,-22.546 14.688,-25.542l141.279,-38.112c11.108,-2.996 22.546,3.579 25.542,14.688Z" style="fill:#f5928d;fill-rule:nonzero;stroke:#f5928d;stroke-width:4.17px;"/><path d="M907.068,1114.644l30.504,113.079c1.5,5.554 -1.788,11.271 -7.342,12.771l-113.079,30.504c-5.558,1.5 -11.275,-1.787 -12.771,-7.342l-30.508,-113.079c-1.496,-5.554 1.792,-11.275 7.346,-12.771l113.079,-30.508c5.554,-1.496 11.271,1.792 12.771,7.346Z" style="fill:#f5928d;fill-rule:nonzero;stroke:#f5928d;stroke-width:4.17px;"/><path d="M1056.765,1222.672l24.858,92.142c0.75,2.779 -0.896,5.637 -3.675,6.387l-92.142,24.854c-2.775,0.75 -5.633,-0.892 -6.383,-3.671l-24.858,-92.142c-0.75,-2.779 0.896,-5.638 3.671,-6.388l92.146,-24.854c2.775,-0.75 5.633,0.892 6.383,3.671Z" style="fill:#f5928d;fill-rule:nonzero;stroke:#f5928d;stroke-width:4.17px;"/><path d="M418.466,1204.569l-46.892,176.196c-4.142,15.567 -20.121,24.829 -35.688,20.688l-176.196,-46.892c-15.567,-4.146 -24.829,-20.121 -20.683,-35.688l46.892,-176.2c4.142,-15.562 20.117,-24.825 35.683,-20.683l176.2,46.892c15.567,4.142 24.825,20.121 20.683,35.688Z" style="fill:#f5928d;fill-rule:nonzero;stroke:#f5928d;stroke-width:4.17px;"/><path d="M582.821,1220.33l73.379,126.6c5.771,9.954 2.379,22.704 -7.575,28.475l-126.604,73.379c-9.954,5.771 -22.7,2.375 -28.471,-7.579l-73.379,-126.6c-5.771,-9.954 -2.379,-22.704 7.575,-28.471l126.604,-73.383c9.954,-5.767 22.7,-2.375 28.471,7.579Z" style="fill:#f5928d;fill-rule:nonzero;stroke:#f5928d;stroke-width:4.17px;"/><path d="M802.035,1307.664l58.733,101.333c2.883,4.975 1.188,11.35 -3.788,14.233l-101.333,58.733c-4.975,2.888 -11.35,1.188 -14.233,-3.787l-58.733,-101.333c-2.888,-4.975 -1.192,-11.35 3.787,-14.233l101.329,-58.733c4.979,-2.888 11.354,-1.192 14.237,3.787Z" style="fill:#f5928d;fill-rule:nonzero;stroke:#f5928d;stroke-width:4.17px;"/><path d="M974.592,1373.266l47.858,82.571c1.442,2.487 0.596,5.675 -1.896,7.117l-82.567,47.858c-2.492,1.442 -5.675,0.596 -7.121,-1.896l-47.858,-82.567c-1.442,-2.492 -0.592,-5.675 1.896,-7.121l82.571,-47.858c2.487,-1.442 5.675,-0.592 7.117,1.896Z" style="fill:#f5928d;fill-rule:nonzero;stroke:#f5928d;stroke-width:4.17px;"/><path d="M353.357,1520.984l0.308,182.329c0.029,16.108 -13.008,29.188 -29.117,29.217l-182.329,0.308c-16.108,0.029 -29.188,-13.008 -29.217,-29.117l-0.308,-182.329c-0.029,-16.108 13.008,-29.188 29.117,-29.217l182.329,-0.308c16.108,-0.029 29.188,13.008 29.217,29.117Z" style="fill:#f5928d;fill-rule:nonzero;stroke:#f5928d;stroke-width:4.17px;"/><path d="M516.19,1493.67l103.646,103.296c8.15,8.121 8.171,21.313 0.05,29.463l-103.296,103.646c-8.121,8.15 -21.312,8.171 -29.462,0.05l-103.646,-103.296c-8.15,-8.121 -8.171,-21.312 -0.05,-29.463l103.296,-103.646c8.121,-8.15 21.312,-8.171 29.462,-0.05Z" style="fill:#f5928d;fill-rule:nonzero;stroke:#f5928d;stroke-width:4.17px;"/><path d="M750.538,1521.291l82.958,82.679c4.075,4.058 4.087,10.654 0.025,14.729l-82.679,82.958c-4.058,4.075 -10.654,4.088 -14.729,0.025l-82.958,-82.675c-4.075,-4.062 -4.087,-10.658 -0.025,-14.733l82.675,-82.958c4.062,-4.075 10.658,-4.087 14.733,-0.025Z" style="fill:#f5928d;fill-rule:nonzero;stroke:#f5928d;stroke-width:4.17px;"/><path d="M934.195,1539.997l67.6,67.371c2.033,2.029 2.042,5.325 0.013,7.362l-67.371,67.6c-2.029,2.038 -5.329,2.042 -7.367,0.013l-67.596,-67.371c-2.038,-2.029 -2.046,-5.325 -0.013,-7.362l67.367,-67.6c2.033,-2.037 5.329,-2.042 7.367,-0.012Z" style="fill:#f5928d;fill-rule:nonzero;stroke:#f5928d;stroke-width:4.17px;"/><path d="M372.36,1843.469l47.488,176.037c4.196,15.55 -5.008,31.562 -20.562,35.758l-176.038,47.488c-15.55,4.196 -31.558,-5.012 -35.754,-20.562l-47.492,-176.038c-4.196,-15.554 5.013,-31.562 20.563,-35.758l176.037,-47.487c15.554,-4.196 31.562,5.008 35.758,20.562Z" style="fill:#f5928d;fill-rule:nonzero;stroke:#f5928d;stroke-width:4.17px;"/><path d="M522.575,1774.941l126.85,72.95c9.975,5.737 13.408,18.471 7.675,28.446l-72.95,126.85c-5.738,9.975 -18.475,13.408 -28.446,7.675l-126.85,-72.95c-9.975,-5.737 -13.413,-18.475 -7.675,-28.446l72.95,-126.85c5.738,-9.975 18.471,-13.412 28.446,-7.675Z" style="fill:#f5928d;fill-rule:nonzero;stroke:#f5928d;stroke-width:4.17px;"/><path d="M756.087,1740.968l101.529,58.388c4.987,2.871 6.704,9.237 3.837,14.225l-58.388,101.529c-2.871,4.987 -9.237,6.704 -14.225,3.837l-101.529,-58.388c-4.988,-2.871 -6.704,-9.237 -3.837,-14.225l58.387,-101.529c2.871,-4.987 9.238,-6.704 14.225,-3.838Z" style="fill:#f5928d;fill-rule:nonzero;stroke:#f5928d;stroke-width:4.17px;"/><path d="M938.327,1711.502l82.729,47.579c2.496,1.433 3.354,4.617 1.921,7.108l-47.579,82.733c-1.433,2.492 -4.617,3.35 -7.112,1.917l-82.729,-47.575c-2.492,-1.438 -3.354,-4.621 -1.917,-7.112l47.575,-82.733c1.433,-2.492 4.621,-3.35 7.112,-1.917Z" style="fill:#f5928d;fill-rule:nonzero;stroke:#f5928d;stroke-width:4.17px;"/><path d="M474.18,2150.047l91.433,157.746c8.079,13.938 3.329,31.783 -10.608,39.863l-157.75,91.433c-13.933,8.079 -31.779,3.329 -39.858,-10.608l-91.433,-157.75c-8.079,-13.933 -3.329,-31.779 10.608,-39.858l157.746,-91.433c13.938,-8.079 31.783,-3.329 39.863,10.608Z" style="fill:#f5928d;fill-rule:nonzero;stroke:#f5928d;stroke-width:4.17px;"/><path d="M601.541,2044.976l141.408,37.633c11.121,2.958 17.733,14.371 14.775,25.492l-37.633,141.408c-2.958,11.117 -14.371,17.733 -25.492,14.775l-141.408,-37.633c-11.117,-2.963 -17.733,-14.375 -14.775,-25.492l37.633,-141.408c2.958,-11.121 14.371,-17.733 25.492,-14.775Z" style="fill:#f5928d;fill-rule:nonzero;stroke:#f5928d;stroke-width:4.17px;"/><path d="M818.304,1951.723l113.183,30.121c5.558,1.479 8.867,7.188 7.387,12.746l-30.121,113.183c-1.479,5.558 -7.188,8.867 -12.746,7.387l-113.183,-30.121c-5.558,-1.479 -8.867,-7.188 -7.388,-12.746l30.121,-113.183c1.479,-5.558 7.188,-8.867 12.746,-7.388Z" style="fill:#f5928d;fill-rule:nonzero;stroke:#f5928d;stroke-width:4.17px;"/><path d="M986.708,1876.094l92.225,24.546c2.779,0.737 4.433,3.592 3.696,6.371l-24.546,92.225c-0.738,2.779 -3.592,4.433 -6.371,3.696l-92.229,-24.546c-2.779,-0.737 -4.433,-3.592 -3.692,-6.371l24.546,-92.229c0.737,-2.779 3.592,-4.433 6.371,-3.692Z" style="fill:#f5928d;fill-rule:nonzero;stroke:#f5928d;stroke-width:4.17px;"/><path d="M651.88,2419.825l129.146,128.708c11.408,11.371 11.442,29.838 0.071,41.246l-128.708,129.146c-11.371,11.412 -29.837,11.442 -41.25,0.071l-129.146,-128.708c-11.408,-11.371 -11.438,-29.838 -0.067,-41.246l128.708,-129.146c11.371,-11.412 29.838,-11.442 41.246,-0.071Z" style="fill:#f5928d;fill-rule:nonzero;stroke:#f5928d;stroke-width:4.17px;"/><path d="M747.707,2285.371l146.329,-0.25c11.508,-0.017 20.85,9.296 20.871,20.8l0.246,146.329c0.021,11.508 -9.292,20.85 -20.796,20.871l-146.329,0.246c-11.508,0.021 -20.85,-9.292 -20.871,-20.796l-0.25,-146.333c-0.017,-11.504 9.296,-20.846 20.8,-20.867Z" style="fill:#f5928d;fill-rule:nonzero;stroke:#f5928d;stroke-width:4.17px;"/><path d="M932.947,2139.193l117.121,-0.2c5.754,-0.008 10.425,4.646 10.438,10.4l0.196,117.121c0.013,5.754 -4.646,10.425 -10.396,10.438l-117.125,0.196c-5.754,0.013 -10.425,-4.646 -10.433,-10.396l-0.2,-117.125c-0.008,-5.75 4.646,-10.425 10.4,-10.433Z" style="fill:#f5928d;fill-rule:nonzero;stroke:#f5928d;stroke-width:4.17px;"/><path d="M1076.039,2022.556l95.438,-0.163c2.875,-0.004 5.213,2.325 5.217,5.2l0.162,95.438c0.004,2.875 -2.325,5.213 -5.2,5.217l-95.438,0.162c-2.875,0.004 -5.212,-2.325 -5.217,-5.2l-0.163,-95.438c-0.004,-2.875 2.325,-5.212 5.2,-5.217Z" style="fill:#f5928d;fill-rule:nonzero;stroke:#f5928d;stroke-width:4.17px;"/><path d="M893.348,2634.42l158.058,90.896c13.963,8.033 18.771,25.862 10.742,39.825l-90.896,158.058c-8.033,13.963 -25.863,18.775 -39.825,10.742l-158.058,-90.896c-13.963,-8.029 -18.771,-25.862 -10.742,-39.825l90.896,-158.058c8.029,-13.963 25.863,-18.771 39.825,-10.742Z" style="fill:#f5928d;fill-rule:nonzero;stroke:#f5928d;stroke-width:4.17px;"/><path d="M951.111,2479.745l141.279,-38.112c11.108,-2.996 22.546,3.579 25.542,14.688l38.112,141.279c2.996,11.108 -3.579,22.546 -14.688,25.542l-141.279,38.113c-11.108,2.996 -22.546,-3.579 -25.542,-14.688l-38.112,-141.279c-2.996,-11.108 3.579,-22.546 14.688,-25.542Z" style="fill:#f5928d;fill-rule:nonzero;stroke:#f5928d;stroke-width:4.17px;"/><path d="M1092.205,2290.604l113.079,-30.504c5.554,-1.5 11.271,1.787 12.771,7.342l30.504,113.079c1.5,5.558 -1.788,11.275 -7.342,12.771l-113.079,30.508c-5.554,1.496 -11.275,-1.792 -12.771,-7.346l-30.508,-113.079c-1.496,-5.554 1.792,-11.271 7.346,-12.771Z" style="fill:#f5928d;fill-rule:nonzero;stroke:#f5928d;stroke-width:4.17px;"/><path d="M1200.233,2140.906l92.142,-24.858c2.779,-0.75 5.638,0.896 6.388,3.675l24.854,92.142c0.75,2.775 -0.896,5.633 -3.671,6.383l-92.142,24.858c-2.779,0.75 -5.638,-0.896 -6.388,-3.671l-24.854,-92.146c-0.75,-2.775 0.892,-5.633 3.671,-6.383Z" style="fill:#f5928d;fill-rule:nonzero;stroke:#f5928d;stroke-width:4.17px;"/><path d="M1182.13,2779.205l176.196,46.892c15.567,4.142 24.829,20.121 20.688,35.688l-46.892,176.196c-4.146,15.567 -20.121,24.829 -35.688,20.683l-176.2,-46.892c-15.562,-4.142 -24.825,-20.117 -20.683,-35.683l46.892,-176.2c4.142,-15.567 20.121,-24.825 35.688,-20.683Z" style="fill:#f5928d;fill-rule:nonzero;stroke:#f5928d;stroke-width:4.17px;"/><path d="M1197.892,2614.851l126.6,-73.379c9.954,-5.771 22.704,-2.379 28.475,7.575l73.379,126.604c5.771,9.954 2.375,22.7 -7.579,28.471l-126.6,73.379c-9.954,5.771 -22.704,2.379 -28.471,-7.575l-73.383,-126.604c-5.767,-9.954 -2.375,-22.7 7.579,-28.471Z" style="fill:#f5928d;fill-rule:nonzero;stroke:#f5928d;stroke-width:4.17px;"/><path d="M1285.225,2395.637l101.333,-58.733c4.975,-2.883 11.35,-1.188 14.233,3.788l58.733,101.333c2.888,4.975 1.188,11.35 -3.787,14.233l-101.333,58.733c-4.975,2.888 -11.35,1.192 -14.233,-3.787l-58.733,-101.329c-2.888,-4.979 -1.192,-11.354 3.787,-14.238Z" style="fill:#f5928d;fill-rule:nonzero;stroke:#f5928d;stroke-width:4.17px;"/><path d="M1350.828,2223.08l82.571,-47.858c2.487,-1.442 5.675,-0.596 7.117,1.896l47.858,82.567c1.442,2.492 0.596,5.675 -1.896,7.121l-82.567,47.858c-2.492,1.442 -5.675,0.592 -7.121,-1.896l-47.858,-82.571c-1.442,-2.488 -0.592,-5.675 1.896,-7.117Z" style="fill:#f5928d;fill-rule:nonzero;stroke:#f5928d;stroke-width:4.17px;"/><path d="M1498.545,2844.315l182.329,-0.308c16.108,-0.029 29.188,13.008 29.217,29.117l0.308,182.329c0.029,16.108 -13.008,29.188 -29.117,29.217l-182.329,0.308c-16.108,0.029 -29.188,-13.008 -29.217,-29.117l-0.308,-182.329c-0.029,-16.108 13.008,-29.188 29.117,-29.217Z" style="fill:#f5928d;fill-rule:nonzero;stroke:#f5928d;stroke-width:4.17px;"/><path d="M1471.231,2681.481l103.296,-103.646c8.121,-8.15 21.312,-8.175 29.463,-0.05l103.646,103.296c8.15,8.121 8.171,21.312 0.05,29.463l-103.296,103.646c-8.121,8.15 -21.312,8.171 -29.462,0.05l-103.646,-103.296c-8.15,-8.121 -8.171,-21.312 -0.05,-29.463Z" style="fill:#f5928d;fill-rule:nonzero;stroke:#f5928d;stroke-width:4.17px;"/><path d="M1498.853,2447.133l82.679,-82.958c4.058,-4.075 10.654,-4.088 14.729,-0.025l82.958,82.679c4.075,4.058 4.087,10.654 0.025,14.729l-82.675,82.958c-4.062,4.075 -10.658,4.087 -14.733,0.025l-82.958,-82.675c-4.075,-4.062 -4.088,-10.658 -0.025,-14.733Z" style="fill:#f5928d;fill-rule:nonzero;stroke:#f5928d;stroke-width:4.17px;"/><path d="M1517.558,2263.477l67.371,-67.6c2.029,-2.033 5.325,-2.042 7.362,-0.013l67.6,67.371c2.037,2.029 2.042,5.329 0.012,7.367l-67.371,67.596c-2.029,2.037 -5.329,2.046 -7.362,0.013l-67.6,-67.367c-2.038,-2.033 -2.042,-5.329 -0.013,-7.367Z" style="fill:#f5928d;fill-rule:nonzero;stroke:#f5928d;stroke-width:4.17px;"/><path d="M1821.03,2825.312l176.037,-47.488c15.55,-4.196 31.562,5.008 35.758,20.562l47.487,176.038c4.196,15.55 -5.012,31.558 -20.562,35.754l-176.037,47.492c-15.554,4.196 -31.562,-5.013 -35.758,-20.562l-47.487,-176.038c-4.196,-15.554 5.008,-31.562 20.562,-35.758Z" style="fill:#f5928d;fill-rule:nonzero;stroke:#f5928d;stroke-width:4.17px;"/><path d="M1752.503,2675.096l72.95,-126.85c5.737,-9.975 18.471,-13.408 28.446,-7.675l126.85,72.95c9.975,5.737 13.408,18.475 7.675,28.446l-72.95,126.85c-5.737,9.975 -18.475,13.412 -28.446,7.675l-126.85,-72.95c-9.975,-5.737 -13.412,-18.471 -7.675,-28.446Z" style="fill:#f5928d;fill-rule:nonzero;stroke:#f5928d;stroke-width:4.17px;"/><path d="M1718.529,2441.584l58.388,-101.529c2.871,-4.987 9.237,-6.704 14.225,-3.838l101.529,58.388c4.987,2.871 6.704,9.237 3.838,14.225l-58.388,101.529c-2.871,4.988 -9.237,6.704 -14.225,3.838l-101.529,-58.388c-4.988,-2.871 -6.704,-9.237 -3.838,-14.225Z" style="fill:#f5928d;fill-rule:nonzero;stroke:#f5928d;stroke-width:4.17px;"/><path d="M1689.064,2259.345l47.579,-82.729c1.433,-2.496 4.617,-3.354 7.108,-1.921l82.733,47.579c2.492,1.433 3.35,4.617 1.917,7.113l-47.575,82.729c-1.438,2.492 -4.621,3.354 -7.112,1.917l-82.733,-47.575c-2.492,-1.433 -3.35,-4.621 -1.917,-7.112Z" style="fill:#f5928d;fill-rule:nonzero;stroke:#f5928d;stroke-width:4.17px;"/><path d="M2127.608,2723.491l157.746,-91.433c13.938,-8.079 31.783,-3.329 39.863,10.608l91.433,157.75c8.079,13.933 3.329,31.779 -10.608,39.858l-157.75,91.433c-13.933,8.079 -31.779,3.329 -39.858,-10.608l-91.433,-157.746c-8.079,-13.938 -3.329,-31.783 10.608,-39.863Z" style="fill:#f5928d;fill-rule:nonzero;stroke:#f5928d;stroke-width:4.17px;"/><path d="M2022.537,2596.13l37.633,-141.408c2.958,-11.121 14.371,-17.733 25.492,-14.775l141.408,37.633c11.117,2.958 17.733,14.371 14.775,25.492l-37.633,141.408c-2.963,11.117 -14.375,17.733 -25.492,14.775l-141.408,-37.633c-11.121,-2.958 -17.733,-14.371 -14.775,-25.492Z" style="fill:#f5928d;fill-rule:nonzero;stroke:#f5928d;stroke-width:4.17px;"/><path d="M1929.284,2379.368l30.121,-113.183c1.479,-5.558 7.188,-8.867 12.746,-7.388l113.183,30.121c5.558,1.479 8.867,7.188 7.388,12.746l-30.121,113.183c-1.479,5.558 -7.188,8.867 -12.746,7.387l-113.183,-30.121c-5.558,-1.479 -8.867,-7.188 -7.388,-12.746Z" style="fill:#f5928d;fill-rule:nonzero;stroke:#f5928d;stroke-width:4.17px;"/><path d="M1853.655,2210.964l24.546,-92.225c0.737,-2.779 3.592,-4.433 6.371,-3.696l92.225,24.546c2.779,0.738 4.433,3.592 3.696,6.371l-24.546,92.229c-0.738,2.779 -3.592,4.433 -6.371,3.692l-92.229,-24.546c-2.779,-0.738 -4.433,-3.592 -3.692,-6.371Z" style="fill:#f5928d;fill-rule:nonzero;stroke:#f5928d;stroke-width:4.17px;"/><path d="M2397.387,2545.792l128.708,-129.146c11.371,-11.408 29.837,-11.442 41.246,-0.071l129.146,128.708c11.412,11.371 11.442,29.838 0.071,41.25l-128.708,129.146c-11.371,11.408 -29.838,11.438 -41.246,0.067l-129.146,-128.708c-11.408,-11.371 -11.442,-29.838 -0.071,-41.246Z" style="fill:#f5928d;fill-rule:nonzero;stroke:#f5928d;stroke-width:4.17px;"/><path d="M2262.933,2449.965l-0.25,-146.329c-0.017,-11.508 9.292,-20.85 20.8,-20.871l146.329,-0.246c11.508,-0.021 20.85,9.292 20.871,20.796l0.246,146.329c0.021,11.508 -9.292,20.85 -20.796,20.871l-146.333,0.25c-11.504,0.017 -20.846,-9.296 -20.867,-20.8Z" style="fill:#f5928d;fill-rule:nonzero;stroke:#f5928d;stroke-width:4.17px;"/><path d="M2116.755,2264.724l-0.2,-117.121c-0.008,-5.754 4.646,-10.425 10.4,-10.438l117.121,-0.196c5.754,-0.012 10.425,4.646 10.438,10.4l0.196,117.121c0.012,5.754 -4.646,10.425 -10.396,10.433l-117.125,0.2c-5.75,0.008 -10.425,-4.646 -10.433,-10.4Z" style="fill:#f5928d;fill-rule:nonzero;stroke:#f5928d;stroke-width:4.17px;"/><path d="M2000.117,2121.633l-0.162,-95.437c-0.004,-2.875 2.325,-5.213 5.2,-5.217l95.438,-0.163c2.875,-0.004 5.213,2.325 5.217,5.2l0.162,95.438c0.004,2.875 -2.325,5.212 -5.2,5.217l-95.437,0.162c-2.875,0.004 -5.213,-2.325 -5.217,-5.2Z" style="fill:#f5928d;fill-rule:nonzero;stroke:#f5928d;stroke-width:4.17px;"/><path d="M2523.353,800.285l-129.146,-128.708c-11.408,-11.371 -11.442,-29.838 -0.071,-41.246l128.708,-129.146c11.371,-11.412 29.838,-11.442 41.25,-0.071l129.146,128.708c11.408,11.371 11.438,29.837 0.067,41.246l-128.708,129.146c-11.371,11.408 -29.838,11.442 -41.246,0.071Z" style="fill:#f5928d;fill-rule:nonzero;stroke:#f5928d;stroke-width:4.17px;"/><path d="M2427.526,934.739l-146.329,0.25c-11.508,0.017 -20.85,-9.296 -20.871,-20.8l-0.246,-146.329c-0.021,-11.508 9.292,-20.85 20.796,-20.871l146.329,-0.246c11.508,-0.021 20.85,9.292 20.871,20.796l0.25,146.333c0.017,11.504 -9.296,20.846 -20.8,20.867Z" style="fill:#f5928d;fill-rule:nonzero;stroke:#f5928d;stroke-width:4.17px;"/><path d="M2242.286,1080.917l-117.121,0.2c-5.754,0.008 -10.425,-4.646 -10.438,-10.4l-0.196,-117.121c-0.013,-5.754 4.646,-10.425 10.396,-10.438l117.125,-0.196c5.754,-0.013 10.425,4.646 10.433,10.396l0.2,117.125c0.008,5.75 -4.646,10.425 -10.4,10.433Z" style="fill:#f5928d;fill-rule:nonzero;stroke:#f5928d;stroke-width:4.17px;"/><path d="M2099.194,1197.555l-95.438,0.163c-2.875,0.004 -5.213,-2.325 -5.217,-5.2l-0.162,-95.438c-0.004,-2.875 2.325,-5.213 5.2,-5.217l95.437,-0.162c2.875,-0.004 5.213,2.325 5.217,5.2l0.162,95.438c0.004,2.875 -2.325,5.212 -5.2,5.217Z" style="fill:#f5928d;fill-rule:nonzero;stroke:#f5928d;stroke-width:4.17px;"/><path d="M2281.885,585.69l-158.058,-90.896c-13.963,-8.033 -18.771,-25.863 -10.742,-39.825l90.896,-158.058c8.033,-13.962 25.863,-18.775 39.825,-10.742l158.058,90.896c13.963,8.029 18.771,25.863 10.742,39.825l-90.896,158.058c-8.033,13.963 -25.862,18.771 -39.825,10.742Z" style="fill:#f5928d;fill-rule:nonzero;stroke:#f5928d;stroke-width:4.17px;"/><path d="M2224.122,740.365l-141.279,38.112c-11.108,2.996 -22.546,-3.579 -25.542,-14.688l-38.113,-141.279c-2.996,-11.108 3.579,-22.546 14.688,-25.542l141.279,-38.113c11.108,-2.996 22.546,3.579 25.542,14.688l38.113,141.279c2.996,11.108 -3.579,22.546 -14.688,25.542Z" style="fill:#f5928d;fill-rule:nonzero;stroke:#f5928d;stroke-width:4.17px;"/><path d="M2083.027,929.506l-113.079,30.504c-5.554,1.5 -11.271,-1.788 -12.771,-7.342l-30.504,-113.083c-1.5,-5.554 1.788,-11.271 7.342,-12.767l113.079,-30.508c5.554,-1.496 11.275,1.792 12.771,7.346l30.508,113.079c1.496,5.554 -1.792,11.271 -7.346,12.771Z" style="fill:#f5928d;fill-rule:nonzero;stroke:#f5928d;stroke-width:4.17px;"/><path d="M1975,1079.204l-92.142,24.858c-2.779,0.746 -5.638,-0.896 -6.388,-3.675l-24.854,-92.142c-0.75,-2.775 0.892,-5.633 3.671,-6.383l92.142,-24.858c2.779,-0.75 5.638,0.896 6.388,3.671l24.854,92.146c0.75,2.775 -0.892,5.633 -3.671,6.383Z" style="fill:#f5928d;fill-rule:nonzero;stroke:#f5928d;stroke-width:4.17px;"/><path d="M1993.103,440.905l-176.196,-46.892c-15.567,-4.142 -24.829,-20.121 -20.688,-35.688l46.892,-176.196c4.146,-15.567 20.121,-24.829 35.688,-20.683l176.2,46.892c15.562,4.142 24.825,20.117 20.683,35.683l-46.892,176.2c-4.142,15.567 -20.121,24.825 -35.688,20.683Z" style="fill:#f5928d;fill-rule:nonzero;stroke:#f5928d;stroke-width:4.17px;"/><path d="M1977.342,605.259l-126.6,73.379c-9.954,5.771 -22.704,2.379 -28.475,-7.575l-73.379,-126.604c-5.771,-9.954 -2.375,-22.7 7.579,-28.471l126.6,-73.379c9.954,-5.771 22.704,-2.379 28.471,7.575l73.383,126.604c5.767,9.954 2.375,22.7 -7.579,28.471Z" style="fill:#f5928d;fill-rule:nonzero;stroke:#f5928d;stroke-width:4.17px;"/><path d="M1890.008,824.473l-101.333,58.733c-4.975,2.883 -11.35,1.188 -14.233,-3.788l-58.733,-101.333c-2.888,-4.975 -1.188,-11.35 3.787,-14.233l101.333,-58.733c4.975,-2.888 11.35,-1.192 14.233,3.787l58.733,101.329c2.888,4.979 1.192,11.354 -3.787,14.237Z" style="fill:#f5928d;fill-rule:nonzero;stroke:#f5928d;stroke-width:4.17px;"/><path d="M1824.405,997.03l-82.571,47.858c-2.487,1.442 -5.675,0.596 -7.117,-1.896l-47.858,-82.567c-1.442,-2.492 -0.596,-5.675 1.896,-7.121l82.567,-47.854c2.492,-1.446 5.675,-0.596 7.121,1.892l47.858,82.571c1.442,2.487 0.592,5.675 -1.896,7.117Z" style="fill:#f5928d;fill-rule:nonzero;stroke:#f5928d;stroke-width:4.17px;"/><g transform="matrix(2128.376106,0,0,2128.376106,12520.314763,2370.204126)"></g><text x="3426.375px" y="2370.204px" style="font-family:'MicrosoftSansSerif', 'Microsoft Sans Serif', sans-serif;font-size:2128.376px;fill:#4282a5;">Or<tspan x="5790.779px 6974.54px 7459.927px 8051.318px 8760.143px 9943.904px 10509.314px " y="2370.204px 2370.204px 2370.204px 2370.204px 2370.204px 2370.204px 2370.204px ">bitra A</tspan>I</text><path d="M1626.963,1137.511l-81.338,0c-1.154,0 -2.083,-0.933 -2.083,-2.083l0,-81.338c0,-1.154 0.929,-2.083 2.083,-2.083l81.338,0c1.15,0 2.083,0.929 2.083,2.083l0,81.338c0,1.15 -0.933,2.083 -2.083,2.083Z" style="fill:#f5928d;fill-rule:nonzero;stroke:#f5928d;stroke-width:4.17px;"/><path d="M1503.564,1143.804l-78.567,21.054c-1.112,0.296 -2.254,-0.362 -2.554,-1.475l-21.05,-78.567c-0.296,-1.113 0.362,-2.254 1.475,-2.554l78.567,-21.05c1.108,-0.3 2.254,0.362 2.55,1.471l21.054,78.571c0.296,1.108 -0.362,2.254 -1.475,2.55Z" style="fill:#f5928d;fill-rule:nonzero;stroke:#f5928d;stroke-width:4.17px;"/><path d="M1385.998,1181.821l-70.442,40.671c-0.996,0.575 -2.271,0.233 -2.846,-0.763l-40.671,-70.442c-0.575,-0.996 -0.233,-2.271 0.762,-2.846l70.442,-40.671c0.996,-0.575 2.271,-0.233 2.846,0.763l40.671,70.442c0.575,0.996 0.233,2.271 -0.763,2.846Z" style="fill:#f5928d;fill-rule:nonzero;stroke:#f5928d;stroke-width:4.17px;"/><path d="M1282.277,1248.971l-57.517,57.517c-0.812,0.812 -2.133,0.812 -2.946,0l-57.512,-57.517c-0.817,-0.812 -0.817,-2.133 0,-2.946l57.512,-57.517c0.812,-0.812 2.133,-0.812 2.946,0l57.517,57.517c0.812,0.812 0.812,2.133 0,2.946Z" style="fill:#f5928d;fill-rule:nonzero;stroke:#f5928d;stroke-width:4.17px;"/><path d="M1195.304,1335.838l-40.671,70.442c-0.575,0.996 -1.85,1.338 -2.846,0.763l-70.442,-40.671c-0.996,-0.575 -1.338,-1.85 -0.763,-2.846l40.671,-70.442c0.575,-0.996 1.85,-1.338 2.846,-0.763l70.442,40.671c0.996,0.575 1.338,1.85 0.763,2.846Z" style="fill:#f5928d;fill-rule:nonzero;stroke:#f5928d;stroke-width:4.17px;"/><path d="M1143.221,1450.692l-21.05,78.567c-0.3,1.113 -1.442,1.771 -2.554,1.475l-78.567,-21.054c-1.112,-0.296 -1.771,-1.438 -1.475,-2.55l21.054,-78.567c0.296,-1.112 1.442,-1.771 2.55,-1.475l78.567,21.054c1.112,0.296 1.771,1.438 1.475,2.55Z" style="fill:#f5928d;fill-rule:nonzero;stroke:#f5928d;stroke-width:4.17px;"/><path d="M1117.362,1571.515l0,81.338c0,1.15 -0.933,2.083 -2.083,2.083l-81.338,0c-1.154,0 -2.083,-0.933 -2.083,-2.083l0,-81.338c0,-1.15 0.929,-2.083 2.083,-2.083l81.338,0c1.15,0 2.083,0.933 2.083,2.083Z" style="fill:#f5928d;fill-rule:nonzero;stroke:#f5928d;stroke-width:4.17px;"/><path d="M1123.655,1694.915l21.05,78.567c0.3,1.113 -0.358,2.254 -1.471,2.554l-78.567,21.05c-1.112,0.3 -2.254,-0.362 -2.554,-1.471l-21.05,-78.571c-0.3,-1.108 0.362,-2.254 1.471,-2.55l78.571,-21.054c1.108,-0.296 2.254,0.362 2.55,1.475Z" style="fill:#f5928d;fill-rule:nonzero;stroke:#f5928d;stroke-width:4.17px;"/><path d="M1161.672,1812.481l40.671,70.442c0.575,0.996 0.233,2.271 -0.763,2.846l-70.442,40.671c-0.996,0.575 -2.271,0.233 -2.846,-0.763l-40.671,-70.442c-0.575,-0.996 -0.233,-2.271 0.763,-2.846l70.442,-40.671c0.996,-0.575 2.271,-0.233 2.846,0.762Z" style="fill:#f5928d;fill-rule:nonzero;stroke:#f5928d;stroke-width:4.17px;"/><path d="M1228.822,1916.201l57.517,57.517c0.812,0.812 0.812,2.133 0,2.946l-57.517,57.513c-0.812,0.817 -2.133,0.817 -2.946,0l-57.517,-57.513c-0.812,-0.812 -0.812,-2.133 0,-2.946l57.517,-57.517c0.812,-0.812 2.133,-0.812 2.946,0Z" style="fill:#f5928d;fill-rule:nonzero;stroke:#f5928d;stroke-width:4.17px;"/><path d="M1320.529,1999.008l70.442,40.671c0.996,0.575 1.338,1.85 0.763,2.846l-40.671,70.442c-0.575,0.996 -1.85,1.337 -2.846,0.762l-70.442,-40.671c-0.996,-0.575 -1.338,-1.85 -0.763,-2.846l40.671,-70.442c0.575,-0.996 1.85,-1.337 2.846,-0.762Z" style="fill:#f5928d;fill-rule:nonzero;stroke:#f5928d;stroke-width:4.17px;"/><path d="M1430.543,2055.257l78.567,21.05c1.113,0.3 1.771,1.442 1.475,2.554l-21.054,78.567c-0.296,1.112 -1.438,1.771 -2.55,1.475l-78.567,-21.054c-1.112,-0.296 -1.771,-1.442 -1.475,-2.55l21.054,-78.567c0.296,-1.113 1.438,-1.771 2.55,-1.475Z" style="fill:#f5928d;fill-rule:nonzero;stroke:#f5928d;stroke-width:4.17px;"/><path d="M1551.366,2081.116l81.338,0c1.154,0 2.083,0.933 2.083,2.083l0,81.338c0,1.154 -0.929,2.083 -2.083,2.083l-81.338,0c-1.15,0 -2.083,-0.929 -2.083,-2.083l0,-81.338c0,-1.15 0.933,-2.083 2.083,-2.083Z" style="fill:#f5928d;fill-rule:nonzero;stroke:#f5928d;stroke-width:4.17px;"/><path d="M1674.766,2078.99l78.567,-21.054c1.112,-0.296 2.254,0.362 2.554,1.475l21.05,78.567c0.3,1.113 -0.362,2.254 -1.471,2.554l-78.571,21.05c-1.108,0.3 -2.254,-0.363 -2.55,-1.471l-21.054,-78.571c-0.296,-1.108 0.362,-2.254 1.475,-2.55Z" style="fill:#f5928d;fill-rule:nonzero;stroke:#f5928d;stroke-width:4.17px;"/><path d="M1792.332,2036.806l70.442,-40.671c0.996,-0.575 2.271,-0.233 2.846,0.763l40.671,70.442c0.575,0.996 0.233,2.271 -0.762,2.846l-70.442,40.671c-0.996,0.575 -2.271,0.233 -2.846,-0.762l-40.671,-70.442c-0.575,-0.996 -0.233,-2.271 0.763,-2.846Z" style="fill:#f5928d;fill-rule:nonzero;stroke:#f5928d;stroke-width:4.17px;"/><path d="M1896.052,1969.656l57.517,-57.517c0.812,-0.812 2.133,-0.812 2.946,0l57.512,57.517c0.817,0.812 0.817,2.133 0,2.946l-57.512,57.517c-0.812,0.812 -2.133,0.812 -2.946,0l-57.517,-57.517c-0.812,-0.812 -0.812,-2.133 0,-2.946Z" style="fill:#f5928d;fill-rule:nonzero;stroke:#f5928d;stroke-width:4.17px;"/><path d="M1949.507,1302.426l-57.517,-57.517c-0.812,-0.812 -0.812,-2.133 0,-2.946l57.517,-57.513c0.812,-0.817 2.133,-0.817 2.946,0l57.517,57.513c0.812,0.812 0.812,2.133 0,2.946l-57.517,57.517c-0.812,0.812 -2.133,0.812 -2.946,0Z" style="fill:#f5928d;fill-rule:nonzero;stroke:#f5928d;stroke-width:4.17px;"/><path d="M1857.8,1219.62l-70.442,-40.671c-0.996,-0.575 -1.338,-1.85 -0.763,-2.846l40.671,-70.442c0.575,-0.996 1.85,-1.338 2.846,-0.763l70.442,40.671c0.996,0.575 1.338,1.85 0.763,2.846l-40.671,70.442c-0.575,0.996 -1.85,1.337 -2.846,0.762Z" style="fill:#f5928d;fill-rule:nonzero;stroke:#f5928d;stroke-width:4.17px;"/><path d="M1747.787,1163.37l-78.567,-21.05c-1.112,-0.3 -1.771,-1.442 -1.475,-2.554l21.054,-78.567c0.296,-1.112 1.438,-1.771 2.55,-1.475l78.567,21.054c1.112,0.296 1.771,1.442 1.475,2.55l-21.054,78.567c-0.296,1.112 -1.438,1.771 -2.55,1.475Z" style="fill:#f5928d;fill-rule:nonzero;stroke:#f5928d;stroke-width:4.17px;"/><path d="M2797.787,1395.185l-41.079,-177.642c-3.629,-15.696 6.15,-31.358 21.846,-34.987l177.642,-41.079c15.696,-3.629 31.358,6.15 34.988,21.846l41.079,177.642c3.629,15.696 -6.15,31.358 -21.846,34.988l-177.642,41.079c-15.696,3.629 -31.358,-6.15 -34.988,-21.846Z" style="fill:#f5928d;fill-rule:nonzero;stroke:#f5928d;stroke-width:4.17px;"/><path d="M2645.186,1458.223l-124.121,-77.5c-9.762,-6.092 -12.733,-18.946 -6.642,-28.704l77.5,-124.125c6.096,-9.758 18.946,-12.729 28.708,-6.638l124.121,77.5c9.758,6.096 12.733,18.946 6.638,28.704l-77.5,124.125c-6.092,9.758 -18.946,12.729 -28.704,6.638Z" style="fill:#f5928d;fill-rule:nonzero;stroke:#f5928d;stroke-width:4.17px;"/><path d="M2410.597,1483.712l-99.346,-62.029c-4.883,-3.046 -6.367,-9.475 -3.321,-14.354l62.029,-99.346c3.05,-4.879 9.475,-6.367 14.354,-3.321l99.346,62.029c4.883,3.05 6.367,9.475 3.321,14.354l-62.029,99.346c-3.05,4.883 -9.475,6.367 -14.354,3.321Z" style="fill:#f5928d;fill-rule:nonzero;stroke:#f5928d;stroke-width:4.17px;"/><path d="M2227.409,1506.554l-80.954,-50.546c-2.438,-1.521 -3.179,-4.733 -1.658,-7.175l50.546,-80.954c1.525,-2.438 4.737,-3.183 7.175,-1.658l80.954,50.546c2.438,1.521 3.183,4.737 1.658,7.175l-50.546,80.954c-1.521,2.438 -4.733,3.183 -7.175,1.658Z" style="fill:#f5928d;fill-rule:nonzero;stroke:#f5928d;stroke-width:4.17px;"/><path d="M2707.026,1084.612l-85.654,-160.958c-7.571,-14.221 -2.175,-31.883 12.042,-39.45l160.958,-85.654c14.221,-7.567 31.883,-2.175 39.45,12.046l85.658,160.958c7.567,14.217 2.175,31.879 -12.046,39.446l-160.958,85.658c-14.221,7.567 -31.883,2.175 -39.45,-12.046Z" style="fill:#f5928d;fill-rule:nonzero;stroke:#f5928d;stroke-width:4.17px;"/><path d="M2575.941,1184.998l-139.95,-42.733c-11.004,-3.358 -17.204,-15.004 -13.842,-26.008l42.733,-139.954c3.358,-11.004 15.004,-17.2 26.008,-13.838l139.95,42.733c11.004,3.358 17.204,15.004 13.842,26.008l-42.733,139.95c-3.358,11.004 -15.004,17.2 -26.008,13.842Z" style="fill:#f5928d;fill-rule:nonzero;stroke:#f5928d;stroke-width:4.17px;"/><path d="M2355.942,1270.335l-112.017,-34.204c-5.504,-1.679 -8.6,-7.5 -6.921,-13.004l34.204,-112.017c1.679,-5.504 7.5,-8.6 13.004,-6.921l112.017,34.204c5.504,1.679 8.6,7.5 6.921,13.004l-34.204,112.017c-1.679,5.504 -7.5,8.6 -13.004,6.921Z" style="fill:#f5928d;fill-rule:nonzero;stroke:#f5928d;stroke-width:4.17px;"/><path d="M2184.908,1339.81l-91.275,-27.871c-2.75,-0.842 -4.3,-3.75 -3.463,-6.5l27.871,-91.279c0.842,-2.75 3.75,-4.3 6.504,-3.458l91.275,27.871c2.75,0.837 4.3,3.75 3.458,6.5l-27.867,91.279c-0.842,2.75 -3.754,4.3 -6.504,3.458Z" style="fill:#f5928d;fill-rule:nonzero;stroke:#f5928d;stroke-width:4.17px;"/><path d="M2539.22,808.57l-124.396,-133.304c-10.992,-11.775 -10.354,-30.233 1.425,-41.221l133.304,-124.4c11.775,-10.987 30.233,-10.35 41.221,1.425l124.396,133.304c10.992,11.779 10.354,30.233 -1.421,41.225l-133.304,124.396c-11.779,10.992 -30.233,10.35 -41.225,-1.425Z" style="fill:#f5928d;fill-rule:nonzero;stroke:#f5928d;stroke-width:4.17px;"/><path d="M2438.584,939.464l-146.242,-5.054c-11.5,-0.4 -20.5,-10.042 -20.104,-21.542l5.058,-146.242c0.396,-11.5 10.042,-20.5 21.537,-20.104l146.246,5.058c11.496,0.396 20.496,10.042 20.1,21.538l-5.054,146.246c-0.4,11.496 -10.042,20.496 -21.542,20.1Z" style="fill:#f5928d;fill-rule:nonzero;stroke:#f5928d;stroke-width:4.17px;"/><path d="M2248.167,1078.833l-117.054,-4.046c-5.75,-0.2 -10.246,-5.021 -10.05,-10.771l4.046,-117.054c0.2,-5.746 5.021,-10.246 10.771,-10.05l117.054,4.046c5.75,0.2 10.25,5.021 10.05,10.771l-4.046,117.054c-0.2,5.75 -5.021,10.25 -10.771,10.05Z" style="fill:#f5928d;fill-rule:nonzero;stroke:#f5928d;stroke-width:4.17px;"/><path d="M2100.943,1190.208l-95.379,-3.296c-2.875,-0.1 -5.125,-2.513 -5.025,-5.388l3.296,-95.379c0.1,-2.875 2.513,-5.125 5.388,-5.025l95.379,3.296c2.875,0.1 5.125,2.513 5.025,5.388l-3.3,95.379c-0.096,2.875 -2.508,5.125 -5.383,5.025Z" style="fill:#f5928d;fill-rule:nonzero;stroke:#f5928d;stroke-width:4.17px;"/><path d="M2573.284,2314.833l96.567,-154.658c8.529,-13.662 26.521,-17.825 40.188,-9.296l154.658,96.567c13.662,8.533 17.825,26.525 9.292,40.188l-96.567,154.658c-8.529,13.667 -26.521,17.825 -40.183,9.296l-154.662,-96.567c-13.662,-8.533 -17.821,-26.525 -9.292,-40.188Z" style="fill:#f5928d;fill-rule:nonzero;stroke:#f5928d;stroke-width:4.17px;"/><path d="M2420.804,2251.503l-32.967,-142.567c-2.592,-11.213 4.392,-22.4 15.604,-24.992l142.567,-32.971c11.212,-2.592 22.4,4.396 24.992,15.604l32.967,142.571c2.592,11.208 -4.392,22.4 -15.604,24.992l-142.567,32.967c-11.213,2.592 -22.4,-4.396 -24.992,-15.604Z" style="fill:#f5928d;fill-rule:nonzero;stroke:#f5928d;stroke-width:4.17px;"/><path d="M2236.9,2103.646l-26.387,-114.112c-1.296,-5.604 2.196,-11.2 7.804,-12.496l114.108,-26.388c5.604,-1.296 11.2,2.2 12.496,7.804l26.387,114.113c1.296,5.604 -2.196,11.196 -7.8,12.496l-114.112,26.383c-5.604,1.3 -11.2,-2.196 -12.496,-7.8Z" style="fill:#f5928d;fill-rule:nonzero;stroke:#f5928d;stroke-width:4.17px;"/><path d="M2091.216,1990.264l-21.5,-92.983c-0.65,-2.8 1.096,-5.6 3.9,-6.246l92.983,-21.504c2.8,-0.646 5.6,1.1 6.246,3.904l21.5,92.979c0.65,2.804 -1.096,5.6 -3.9,6.25l-92.983,21.5c-2.8,0.65 -5.596,-1.096 -6.246,-3.9Z" style="fill:#f5928d;fill-rule:nonzero;stroke:#f5928d;stroke-width:4.17px;"/><path d="M2728.44,2031.488l53.246,-174.383c4.704,-15.404 21.008,-24.079 36.412,-19.375l174.383,53.246c15.404,4.704 24.083,21.004 19.379,36.413l-53.25,174.383c-4.704,15.404 -21.004,24.079 -36.412,19.375l-174.379,-53.246c-15.408,-4.704 -24.083,-21.008 -19.379,-36.412Z" style="fill:#f5928d;fill-rule:nonzero;stroke:#f5928d;stroke-width:4.17px;"/><path d="M2564.765,2009.78l-68.746,-129.179c-5.404,-10.154 -1.55,-22.771 8.604,-28.175l129.179,-68.746c10.158,-5.404 22.775,-1.554 28.179,8.604l68.742,129.179c5.408,10.154 1.554,22.771 -8.604,28.175l-129.175,68.746c-10.158,5.404 -22.775,1.554 -28.179,-8.604Z" style="fill:#f5928d;fill-rule:nonzero;stroke:#f5928d;stroke-width:4.17px;"/><path d="M2348.86,1914.56l-55.021,-103.392c-2.704,-5.079 -0.779,-11.388 4.3,-14.092l103.396,-55.021c5.075,-2.704 11.383,-0.779 14.087,4.3l55.021,103.396c2.704,5.079 0.779,11.383 -4.3,14.088l-103.396,55.021c-5.075,2.704 -11.383,0.779 -14.088,-4.3Z" style="fill:#f5928d;fill-rule:nonzero;stroke:#f5928d;stroke-width:4.17px;"/><path d="M2178.793,1842.747l-44.833,-84.25c-1.354,-2.538 -0.387,-5.692 2.15,-7.046l84.25,-44.833c2.537,-1.35 5.692,-0.388 7.046,2.15l44.833,84.25c1.35,2.542 0.388,5.696 -2.15,7.046l-84.25,44.833c-2.542,1.354 -5.696,0.388 -7.046,-2.15Z" style="fill:#f5928d;fill-rule:nonzero;stroke:#f5928d;stroke-width:4.17px;"/><path d="M2804.973,1717.64l6.3,-182.221c0.554,-16.1 14.058,-28.7 30.154,-28.142l182.221,6.3c16.1,0.554 28.7,14.054 28.142,30.154l-6.296,182.221c-0.558,16.1 -14.058,28.7 -30.158,28.142l-182.221,-6.296c-16.1,-0.558 -28.7,-14.058 -28.142,-30.158Z" style="fill:#f5928d;fill-rule:nonzero;stroke:#f5928d;stroke-width:4.17px;"/><path d="M2641.257,1739.035l-99.833,-106.983c-7.85,-8.412 -7.396,-21.596 1.017,-29.446l106.983,-99.833c8.413,-7.85 21.596,-7.396 29.446,1.017l99.833,106.983c7.85,8.412 7.396,21.596 -1.017,29.446l-106.983,99.833c-8.412,7.85 -21.596,7.396 -29.446,-1.017Z" style="fill:#f5928d;fill-rule:nonzero;stroke:#f5928d;stroke-width:4.17px;"/><path d="M2408.064,1702.939l-79.908,-85.629c-3.925,-4.208 -3.696,-10.8 0.508,-14.725l85.629,-79.904c4.208,-3.925 10.8,-3.7 14.725,0.508l79.908,85.629c3.925,4.204 3.696,10.796 -0.508,14.721l-85.633,79.908c-4.204,3.925 -10.796,3.696 -14.721,-0.508Z" style="fill:#f5928d;fill-rule:nonzero;stroke:#f5928d;stroke-width:4.17px;"/><path d="M2225.206,1677.59l-65.113,-69.775c-1.962,-2.104 -1.85,-5.4 0.254,-7.362l69.775,-65.108c2.104,-1.967 5.4,-1.85 7.363,0.254l65.113,69.771c1.962,2.104 1.846,5.4 -0.254,7.362l-69.775,65.112c-2.104,1.963 -5.4,1.85 -7.363,-0.254Z" style="fill:#f5928d;fill-rule:nonzero;stroke:#f5928d;stroke-width:4.17px;"/><path d="M2044.127,1516.566l-18.192,-79.279c-0.258,-1.121 0.446,-2.237 1.567,-2.496l79.279,-18.192c1.121,-0.258 2.238,0.442 2.496,1.567l18.192,79.279c0.254,1.121 -0.446,2.237 -1.567,2.496l-79.279,18.192c-1.121,0.254 -2.237,-0.446 -2.496,-1.567Z" style="fill:#f5928d;fill-rule:nonzero;stroke:#f5928d;stroke-width:4.17px;"/><path d="M2010.395,1397.7l-38.092,-71.871c-0.537,-1.017 -0.15,-2.275 0.867,-2.817l71.871,-38.087c1.017,-0.538 2.275,-0.15 2.817,0.867l38.088,71.867c0.537,1.017 0.154,2.279 -0.863,2.817l-71.871,38.092c-1.017,0.537 -2.279,0.15 -2.817,-0.867Z" style="fill:#f5928d;fill-rule:nonzero;stroke:#f5928d;stroke-width:4.17px;"/><path d="M1947.048,1291.614l-55.392,-59.562c-0.783,-0.842 -0.737,-2.158 0.104,-2.942l59.562,-55.396c0.842,-0.783 2.162,-0.733 2.946,0.108l55.392,59.562c0.783,0.842 0.737,2.158 -0.104,2.942l-59.562,55.396c-0.846,0.783 -2.163,0.733 -2.946,-0.108Z" style="fill:#f5928d;fill-rule:nonzero;stroke:#f5928d;stroke-width:4.17px;"/><path d="M1955.524,1867.823l43.196,-68.921c0.612,-0.975 1.896,-1.271 2.871,-0.658l68.921,43.196c0.975,0.608 1.271,1.896 0.658,2.871l-43.196,68.921c-0.608,0.975 -1.896,1.271 -2.871,0.658l-68.921,-43.196c-0.975,-0.608 -1.271,-1.896 -0.658,-2.871Z" style="fill:#f5928d;fill-rule:nonzero;stroke:#f5928d;stroke-width:4.17px;"/><path d="M2015.723,1759.92l23.888,-77.754c0.337,-1.1 1.5,-1.717 2.6,-1.379l77.754,23.888c1.1,0.337 1.717,1.504 1.379,2.6l-23.883,77.754c-0.338,1.1 -1.504,1.717 -2.604,1.379l-77.754,-23.883c-1.1,-0.337 -1.717,-1.504 -1.379,-2.604Z" style="fill:#f5928d;fill-rule:nonzero;stroke:#f5928d;stroke-width:4.17px;"/><path d="M2045.944,1640.113l2.946,-81.287c0.042,-1.146 1.008,-2.046 2.158,-2.004l81.288,2.946c1.15,0.042 2.046,1.008 2.004,2.158l-2.946,81.287c-0.042,1.15 -1.008,2.046 -2.158,2.004l-81.283,-2.946c-1.15,-0.042 -2.05,-1.008 -2.008,-2.158Z" style="fill:#f5928d;fill-rule:nonzero;stroke:#f5928d;stroke-width:4.17px;"/></g></svg>